<mxfile host="app.diagrams.net" modified="2023-09-03T23:05:59.130Z" agent="Mozilla/5.0 (Windows NT 10.0; Win64; x64) AppleWebKit/537.36 (KHTML, like Gecko) Chrome/116.0.0.0 Safari/537.36" version="21.7.2" etag="11VF_kJtoSlzvdzulxaB" type="github">
  <diagram name="PÃ¡gina-1" id="DU-7Cj1c_4fYwqEedSrE">
    <mxGraphModel>
      <root>
        <mxCell id="0" />
        <mxCell id="1" parent="0" />
      </root>
    </mxGraphModel>
  </diagram>
</mxfile>
